<svg width="22" height="23" viewBox="0 0 22 23" fill="none" xmlns="http://www.w3.org/2000/svg">
<path d="M21.1789 11.5947C21.1891 10.81 20.764 10.0887 20.0737 9.71018L3.98717 0.871765C3.26665 0.464547 2.41729 0.514577 1.73835 0.978192C1.04695 1.44962 0.693066 2.57185 0.886343 3.38239L2.38809 9.67415C2.54226 10.3193 3.11968 10.7736 3.78398 10.7708L12.7361 10.743C13.1945 10.7338 13.5663 11.1056 13.5571 11.564C13.5557 12.0146 13.1894 12.3809 12.731 12.3901L3.77034 12.4109C3.10605 12.4122 2.5258 12.8685 2.36763 13.5147L0.812777 19.8315C0.623993 20.5779 0.839229 21.3231 1.36592 21.8498C1.42789 21.9118 1.49759 21.9815 1.56735 22.0357C2.24944 22.5619 3.14272 22.629 3.90539 22.2226L20.0465 13.4707C20.7391 13.1034 21.1687 12.3795 21.1789 11.5947Z" fill="white"/>
</svg>
