<svg width="39" height="38" viewBox="0 0 39 38" fill="none" xmlns="http://www.w3.org/2000/svg">
<path d="M38.2402 19C38.2402 8.50658 29.7337 0 19.2402 0C8.74682 0 0.240234 8.50658 0.240234 19C0.240234 28.4833 7.18822 36.3438 16.2715 37.7692V24.4922H11.4473V19H16.2715V14.8141C16.2715 10.0522 19.1081 7.42188 23.4481 7.42188C25.5262 7.42188 27.7012 7.79297 27.7012 7.79297V12.4688H25.3054C22.9452 12.4688 22.209 13.9335 22.209 15.4375V19H27.4785L26.6361 24.4922H22.209V37.7692C31.2922 36.3438 38.2402 28.4833 38.2402 19Z" fill="url(#paint0_linear_2336_49)"/>
<defs>
<linearGradient id="paint0_linear_2336_49" x1="0.240235" y1="18.8846" x2="38.2402" y2="18.8846" gradientUnits="userSpaceOnUse">
<stop stop-color="#6288E2"/>
<stop offset="1" stop-color="#73ACF9"/>
</linearGradient>
</defs>
</svg>
