<svg width="39" height="38" viewBox="0 0 39 38" fill="none" xmlns="http://www.w3.org/2000/svg">
<path d="M19.7402 3.42148C24.8168 3.42148 25.418 3.44375 27.4145 3.53281C29.2699 3.61445 30.2719 3.92617 30.9398 4.18594C31.823 4.52734 32.4613 4.94297 33.1219 5.60352C33.7898 6.27148 34.198 6.90234 34.5395 7.78555C34.7992 8.45352 35.1109 9.46289 35.1926 11.3109C35.2816 13.3148 35.3039 13.916 35.3039 18.9852C35.3039 24.0617 35.2816 24.6629 35.1926 26.6594C35.1109 28.5148 34.7992 29.5168 34.5395 30.1848C34.198 31.068 33.7824 31.7063 33.1219 32.3668C32.4539 33.0348 31.823 33.443 30.9398 33.7844C30.2719 34.0441 29.2625 34.3559 27.4145 34.4375C25.4105 34.5266 24.8094 34.5488 19.7402 34.5488C14.6637 34.5488 14.0625 34.5266 12.066 34.4375C10.2105 34.3559 9.20859 34.0441 8.54063 33.7844C7.65742 33.443 7.01914 33.0273 6.35859 32.3668C5.69063 31.6988 5.28242 31.068 4.94102 30.1848C4.68125 29.5168 4.36953 28.5074 4.28789 26.6594C4.19883 24.6555 4.17656 24.0543 4.17656 18.9852C4.17656 13.9086 4.19883 13.3074 4.28789 11.3109C4.36953 9.45547 4.68125 8.45352 4.94102 7.78555C5.28242 6.90234 5.69805 6.26406 6.35859 5.60352C7.02656 4.93555 7.65742 4.52734 8.54063 4.18594C9.20859 3.92617 10.218 3.61445 12.066 3.53281C14.0625 3.44375 14.6637 3.42148 19.7402 3.42148ZM19.7402 0C14.582 0 13.9363 0.0222656 11.9102 0.111328C9.89141 0.200391 8.50352 0.526953 7.30117 0.994531C6.04688 1.48438 4.98555 2.13008 3.93164 3.19141C2.87031 4.24531 2.22461 5.30664 1.73477 6.55352C1.26719 7.76328 0.940625 9.14375 0.851563 11.1625C0.7625 13.1961 0.740234 13.8418 0.740234 19C0.740234 24.1582 0.7625 24.8039 0.851563 26.8301C0.940625 28.8488 1.26719 30.2367 1.73477 31.4391C2.22461 32.6934 2.87031 33.7547 3.93164 34.8086C4.98555 35.8625 6.04688 36.5156 7.29375 36.998C8.50352 37.4656 9.88398 37.7922 11.9027 37.8812C13.9289 37.9703 14.5746 37.9926 19.7328 37.9926C24.891 37.9926 25.5367 37.9703 27.5629 37.8812C29.5816 37.7922 30.9695 37.4656 32.1719 36.998C33.4188 36.5156 34.4801 35.8625 35.534 34.8086C36.5879 33.7547 37.241 32.6934 37.7234 31.4465C38.191 30.2367 38.5176 28.8563 38.6066 26.8375C38.6957 24.8113 38.718 24.1656 38.718 19.0074C38.718 13.8492 38.6957 13.2035 38.6066 11.1773C38.5176 9.15859 38.191 7.7707 37.7234 6.56836C37.2559 5.30664 36.6102 4.24531 35.5488 3.19141C34.4949 2.1375 33.4336 1.48438 32.1867 1.00195C30.977 0.534375 29.5965 0.207813 27.5777 0.11875C25.5441 0.0222656 24.8984 0 19.7402 0Z" fill="url(#paint0_linear_2336_237)"/>
<path d="M19.7402 9.24023C14.352 9.24023 9.98047 13.6117 9.98047 19C9.98047 24.3883 14.352 28.7598 19.7402 28.7598C25.1285 28.7598 29.5 24.3883 29.5 19C29.5 13.6117 25.1285 9.24023 19.7402 9.24023ZM19.7402 25.3309C16.2445 25.3309 13.4094 22.4957 13.4094 19C13.4094 15.5043 16.2445 12.6691 19.7402 12.6691C23.2359 12.6691 26.0711 15.5043 26.0711 19C26.0711 22.4957 23.2359 25.3309 19.7402 25.3309Z" fill="url(#paint1_linear_2336_237)"/>
<path d="M32.1645 8.85469C32.1645 10.1164 31.1402 11.1332 29.8859 11.1332C28.6242 11.1332 27.6074 10.109 27.6074 8.85469C27.6074 7.59297 28.6316 6.57617 29.8859 6.57617C31.1402 6.57617 32.1645 7.60039 32.1645 8.85469Z" fill="url(#paint2_linear_2336_237)"/>
<defs>
<linearGradient id="paint0_linear_2336_237" x1="0.740235" y1="18.9963" x2="38.718" y2="18.9963" gradientUnits="userSpaceOnUse">
<stop stop-color="#6288E2"/>
<stop offset="1" stop-color="#73ACF9"/>
</linearGradient>
<linearGradient id="paint1_linear_2336_237" x1="9.98047" y1="19" x2="29.5" y2="19" gradientUnits="userSpaceOnUse">
<stop stop-color="#6288E2"/>
<stop offset="1" stop-color="#73ACF9"/>
</linearGradient>
<linearGradient id="paint2_linear_2336_237" x1="27.6074" y1="8.85469" x2="32.1645" y2="8.85469" gradientUnits="userSpaceOnUse">
<stop stop-color="#6288E2"/>
<stop offset="1" stop-color="#73ACF9"/>
</linearGradient>
</defs>
</svg>
