<svg width="39" height="38" viewBox="0 0 39 38" fill="none" xmlns="http://www.w3.org/2000/svg">
<path d="M35.4273 0H3.0457C1.49453 0 0.240234 1.22461 0.240234 2.73867V35.2539C0.240234 36.768 1.49453 38 3.0457 38H35.4273C36.9785 38 38.2402 36.768 38.2402 35.2613V2.73867C38.2402 1.22461 36.9785 0 35.4273 0ZM11.5141 32.3816H5.87344V14.2426H11.5141V32.3816ZM8.69375 11.7711C6.88281 11.7711 5.4207 10.309 5.4207 8.50547C5.4207 6.70195 6.88281 5.23984 8.69375 5.23984C10.4973 5.23984 11.9594 6.70195 11.9594 8.50547C11.9594 10.3016 10.4973 11.7711 8.69375 11.7711ZM32.6219 32.3816H26.9887V23.5645C26.9887 21.4641 26.9516 18.7551 24.057 18.7551C21.1254 18.7551 20.6801 21.0484 20.6801 23.416V32.3816H15.0543V14.2426H20.4574V16.7215H20.5316C21.2812 15.2965 23.1219 13.7898 25.8605 13.7898C31.568 13.7898 32.6219 17.5453 32.6219 22.4289V32.3816Z" fill="url(#paint0_linear_2336_35)"/>
<defs>
<linearGradient id="paint0_linear_2336_35" x1="0.240235" y1="19" x2="38.2402" y2="19" gradientUnits="userSpaceOnUse">
<stop stop-color="#6288E2"/>
<stop offset="1" stop-color="#73ACF9"/>
</linearGradient>
</defs>
</svg>
