<svg width="39" height="39" viewBox="0 0 38 22" fill="none" xmlns="http://www.w3.org/2000/svg">
<path d="M21.4344 11C21.4344 16.9019 16.6369 21.6875 10.716 21.6875C9.31063 21.6894 7.91864 21.4144 6.61953 20.8783C5.32042 20.3423 4.13962 19.5555 3.14454 18.5631C2.14947 17.5707 1.35961 16.392 0.820073 15.0943C0.280531 13.7966 0.00187009 12.4054 0 11C0 5.09576 4.7975 0.312513 10.716 0.312513C12.1216 0.310328 13.5138 0.585053 14.8132 1.121C16.1126 1.65694 17.2937 2.44361 18.289 3.43606C19.2843 4.42852 20.0744 5.60733 20.6141 6.90516C21.1538 8.203 21.4325 9.59444 21.4344 11ZM33.1906 11C33.1906 16.5575 30.7919 21.0605 27.8326 21.0605C24.8734 21.0605 22.4746 16.5551 22.4746 11C22.4746 5.44251 24.8734 0.939513 27.8326 0.939513C30.7919 0.939513 33.1906 5.44489 33.1906 11ZM38 11C38 15.978 37.1569 20.0131 36.1143 20.0131C35.074 20.0131 34.2309 15.9756 34.2309 11C34.2309 6.02201 35.074 1.98689 36.1166 1.98689C37.1569 1.98689 38 6.02201 38 11Z" fill="url(#paint0_linear_2362_1464)"/>
<defs>
<linearGradient id="paint0_linear_2362_1464" x1="2.12341e-07" y1="11" x2="38" y2="11" gradientUnits="userSpaceOnUse">
<stop stop-color="#6288E2"/>
<stop offset="1" stop-color="#73ACF9"/>
</linearGradient>
</defs>
</svg>
