<svg width="25" height="22" viewBox="0 0 25 22" fill="none" xmlns="http://www.w3.org/2000/svg">
<path d="M23 1H2C0.89543 1 0 1.89543 0 3C0 4.10457 0.89543 5 2 5H23C24.1046 5 25 4.10457 25 3C25 1.89543 24.1046 1 23 1Z" fill="#808080"/>
<path d="M23.75 10H1.25C0.559644 10 0 10.4477 0 11C0 11.5523 0.559644 12 1.25 12H23.75C24.4404 12 25 11.5523 25 11C25 10.4477 24.4404 10 23.75 10Z" fill="#808080"/>
<path d="M23 17H2C0.89543 17 0 17.8954 0 19C0 20.1046 0.89543 21 2 21H23C24.1046 21 25 20.1046 25 19C25 17.8954 24.1046 17 23 17Z" fill="#808080"/>
</svg>
