<svg width="39" height="32" viewBox="0 0 39 32" fill="none" xmlns="http://www.w3.org/2000/svg">
<path d="M12.6946 31.4377C27.0307 31.4377 34.8742 19.5575 34.8742 9.25813C34.8742 8.92414 34.8668 8.58274 34.8519 8.24875C36.3777 7.14533 37.6944 5.77859 38.7402 4.21274C37.3192 4.84497 35.8105 5.25787 34.2656 5.43735C35.8923 4.46229 37.1102 2.93051 37.6937 1.12598C36.1634 2.0329 34.4899 2.67265 32.7448 3.01782C31.5691 1.76849 30.0145 0.941284 28.3214 0.664097C26.6283 0.38691 24.8911 0.67518 23.3783 1.48434C21.8655 2.29349 20.6614 3.57847 19.9522 5.14059C19.2429 6.70272 19.068 8.45499 19.4545 10.1265C16.3558 9.97099 13.3245 9.16605 10.5569 7.76384C7.78928 6.36163 5.34725 4.39346 3.3891 1.98692C2.39387 3.70282 2.08932 5.73329 2.53737 7.66566C2.98541 9.59803 4.15242 11.2873 5.80121 12.3902C4.5634 12.3509 3.3527 12.0176 2.26914 11.4179V11.5144C2.26803 13.3151 2.89056 15.0606 4.03089 16.4542C5.17123 17.8479 6.759 18.8036 8.5243 19.1589C7.37766 19.4726 6.17421 19.5183 5.00707 19.2925C5.5052 20.8411 6.47439 22.1956 7.77937 23.1669C9.08435 24.1382 10.66 24.6778 12.2864 24.7105C9.52524 26.8794 6.11434 28.0559 2.60313 28.0503C1.98044 28.0494 1.35837 28.0112 0.740234 27.936C4.30726 30.2245 8.45666 31.4399 12.6946 31.4377Z" fill="url(#paint0_linear_2336_214)"/>
<defs>
<linearGradient id="paint0_linear_2336_214" x1="0.740235" y1="15.9996" x2="38.7402" y2="15.9996" gradientUnits="userSpaceOnUse">
<stop stop-color="#6288E2"/>
<stop offset="1" stop-color="#73ACF9"/>
</linearGradient>
</defs>
</svg>
