<svg width="40" height="40" viewBox="0 0 40 40" fill="none" xmlns="http://www.w3.org/2000/svg">
<circle cx="20" cy="20" r="20" fill="white" fill-opacity="0.23"/>
<path d="M11.9393 25.9393C11.3536 26.5251 11.3536 27.4749 11.9393 28.0607C12.5251 28.6464 13.4749 28.6464 14.0607 28.0607L11.9393 25.9393ZM28.0607 14.0607C28.6464 13.4749 28.6464 12.5251 28.0607 11.9393C27.4749 11.3536 26.5251 11.3536 25.9393 11.9393L28.0607 14.0607ZM14.0607 28.0607L28.0607 14.0607L25.9393 11.9393L11.9393 25.9393L14.0607 28.0607Z" fill="white"/>
<path d="M14.0607 11.9393C13.4749 11.3536 12.5251 11.3536 11.9393 11.9393C11.3536 12.5251 11.3536 13.4749 11.9393 14.0607L14.0607 11.9393ZM25.9393 28.0607C26.5251 28.6464 27.4749 28.6464 28.0607 28.0607C28.6464 27.4749 28.6464 26.5251 28.0607 25.9393L25.9393 28.0607ZM11.9393 14.0607L25.9393 28.0607L28.0607 25.9393L14.0607 11.9393L11.9393 14.0607Z" fill="white"/>
</svg>
