<svg width="40" height="40" viewBox="0 0 40 40" fill="none" xmlns="http://www.w3.org/2000/svg">
<circle cx="20" cy="20" r="20" fill="white" fill-opacity="0.32"/>
<path d="M27.8009 17.0703C28.392 16.49 28.4007 15.5403 27.8203 14.9491C27.24 14.358 26.2903 14.3493 25.6991 14.9297L27.8009 17.0703ZM17.5833 25L16.5324 26.0703C17.1159 26.6432 18.0507 26.6432 18.6342 26.0703L17.5833 25ZM14.0509 19.4297C13.4597 18.8493 12.51 18.858 11.9297 19.4491C11.3493 20.0402 11.358 20.99 11.9491 21.5703L14.0509 19.4297ZM25.6991 14.9297L16.5324 23.9297L18.6342 26.0703L27.8009 17.0703L25.6991 14.9297ZM18.6342 23.9297L14.0509 19.4297L11.9491 21.5703L16.5324 26.0703L18.6342 23.9297Z" fill="white"/>
</svg>
