<svg width="53" height="53" viewBox="0 0 53 53" fill="none" xmlns="http://www.w3.org/2000/svg">
<path d="M46.7166 26.1819C46.7309 25.0769 46.1324 24.0614 45.1605 23.5284L22.5105 11.0838C21.496 10.5105 20.3001 10.5809 19.3441 11.2337C18.3706 11.8975 17.8724 13.4776 18.1445 14.6188L20.259 23.4777C20.476 24.3861 21.289 25.0257 22.2244 25.0217L34.829 24.9826C35.4745 24.9696 35.998 25.4931 35.985 26.1386C35.9831 26.7731 35.4673 27.2888 34.8218 27.3018L22.2052 27.3311C21.2699 27.3329 20.4529 27.9754 20.2302 28.8852L18.0409 37.7792C17.7751 38.8302 18.0782 39.8795 18.8197 40.6211C18.907 40.7083 19.0051 40.8065 19.1034 40.8828C20.0637 41.6237 21.3215 41.7182 22.3953 41.146L45.1222 28.8232C46.0974 28.3061 46.7022 27.2868 46.7166 26.1819Z" fill="white"/>
</svg>
