<svg width="57" height="56" viewBox="0 0 57 56" fill="none" xmlns="http://www.w3.org/2000/svg">
<path d="M56.9993 27.7047C56.9993 12.4022 44.3387 0 28.7174 0C13.0961 0 0.435547 12.4022 0.435547 27.7047C0.435547 43.0072 13.0961 55.4094 28.7174 55.4094C28.8831 55.4094 29.0489 55.4094 29.2146 55.3986V33.8409H23.1384V26.9039H29.2146V21.7958C29.2146 15.8761 32.9045 12.6511 38.2957 12.6511C40.8808 12.6511 43.1014 12.8351 43.7422 12.9216V19.1119H40.0302C37.1026 19.1119 36.5281 20.4755 36.5281 22.4776V26.893H43.5433L42.6264 33.83H36.5281V54.338C48.349 51.0156 56.9993 40.3558 56.9993 27.7047Z" fill="url(#paint0_linear_63_53)"/>
<defs>
<linearGradient id="paint0_linear_63_53" x1="28.7174" y1="0" x2="28.7174" y2="55.4094" gradientUnits="userSpaceOnUse">
<stop stop-color="#6389E3"/>
<stop offset="1" stop-color="#72AAF8"/>
</linearGradient>
</defs>
</svg>
