<svg width="57" height="56" viewBox="0 0 57 56" fill="none" xmlns="http://www.w3.org/2000/svg">
<path d="M28.5172 0C13.2187 0 0.8125 12.4062 0.8125 27.7047C0.8125 43.0032 13.2187 55.4094 28.5172 55.4094C43.8157 55.4094 56.2219 43.0032 56.2219 27.7047C56.2219 12.4062 43.8157 0 28.5172 0ZM42.4161 21.1977V24.9489C40.6472 24.9496 38.9285 24.603 37.3076 23.9191C36.2653 23.4791 35.2942 22.9121 34.4061 22.227L34.4327 33.7734C34.4215 36.3735 33.3929 38.8163 31.5312 40.6564C30.0161 42.1542 28.0962 43.1067 26.0153 43.415C25.5264 43.4874 25.0288 43.5245 24.5256 43.5245C22.298 43.5245 20.1833 42.8029 18.4534 41.4716C18.1278 41.2209 17.8165 40.9492 17.5201 40.6564C15.5024 38.6622 14.4619 35.9595 14.6371 33.1162C14.7708 30.9519 15.6373 28.8878 17.0819 27.27C18.9931 25.1291 21.6668 23.9409 24.5256 23.9409C25.0288 23.9409 25.5264 23.9786 26.0153 24.051V25.438V29.2963C25.5517 29.1434 25.0566 29.0593 24.541 29.0593C21.9292 29.0593 19.8162 31.1902 19.8553 33.804C19.88 35.4763 20.7935 36.9382 22.1409 37.744C22.7741 38.1227 23.5025 38.3574 24.2799 38.4C24.889 38.4335 25.4738 38.3486 26.0153 38.1698C27.8814 37.5534 29.2276 35.8006 29.2276 33.7334L29.2337 26.0013V11.8849H34.3998C34.4048 12.3968 34.4567 12.8962 34.5532 13.3802C34.9432 15.3391 36.0474 17.0386 37.5841 18.1972C38.9241 19.2079 40.5927 19.807 42.4011 19.807C42.4023 19.807 42.4173 19.807 42.416 19.8058V21.1977H42.4161Z" fill="url(#paint0_linear_63_54)"/>
<defs>
<linearGradient id="paint0_linear_63_54" x1="28.5172" y1="0" x2="28.5172" y2="55.4094" gradientUnits="userSpaceOnUse">
<stop stop-color="#6389E3"/>
<stop offset="1" stop-color="#72AAF8"/>
</linearGradient>
</defs>
</svg>
