<svg width="57" height="56" viewBox="0 0 57 56" fill="none" xmlns="http://www.w3.org/2000/svg">
<path d="M33.633 27.7047C33.633 30.6334 31.2589 33.0076 28.3302 33.0076C25.4015 33.0076 23.0273 30.6334 23.0273 27.7047C23.0273 24.776 25.4015 22.4018 28.3302 22.4018C31.2589 22.4018 33.633 24.776 33.633 27.7047Z" fill="url(#paint0_linear_63_49)"/>
<path d="M40.731 18.3224C40.4761 17.6316 40.0694 17.0064 39.541 16.4932C39.0278 15.9648 38.403 15.5581 37.7118 15.3032C37.1512 15.0855 36.3091 14.8263 34.7581 14.7557C33.0802 14.6792 32.5772 14.6627 28.3295 14.6627C24.0814 14.6627 23.5783 14.6788 21.9009 14.7553C20.3498 14.8263 19.5073 15.0855 18.9472 15.3032C18.256 15.5581 17.6308 15.9648 17.118 16.4932C16.5896 17.0064 16.1829 17.6312 15.9276 18.3224C15.7098 18.883 15.4507 19.7255 15.3801 21.2765C15.3036 22.9539 15.2871 23.457 15.2871 27.7051C15.2871 31.9528 15.3036 32.4559 15.3801 34.1337C15.4507 35.6848 15.7098 36.5269 15.9276 37.0874C16.1829 37.7786 16.5891 38.4034 17.1176 38.9166C17.6308 39.445 18.2556 39.8517 18.9468 40.1066C19.5073 40.3248 20.3498 40.5839 21.9009 40.6545C23.5783 40.731 24.0809 40.7471 28.3291 40.7471C32.5776 40.7471 33.0807 40.731 34.7577 40.6545C36.3087 40.5839 37.1512 40.3248 37.7118 40.1066C39.0992 39.5714 40.1958 38.4748 40.731 37.0874C40.9487 36.5269 41.2078 35.6848 41.2789 34.1337C41.3554 32.4559 41.3714 31.9528 41.3714 27.7051C41.3714 23.457 41.3554 22.9539 41.2789 21.2765C41.2083 19.7255 40.9491 18.883 40.731 18.3224ZM28.3295 35.8737C23.8176 35.8737 20.16 32.2166 20.16 27.7047C20.16 23.1928 23.8176 19.5357 28.3295 19.5357C32.841 19.5357 36.4985 23.1928 36.4985 27.7047C36.4985 32.2166 32.841 35.8737 28.3295 35.8737ZM36.8215 21.1218C35.7672 21.1218 34.9124 20.267 34.9124 19.2127C34.9124 18.1584 35.7672 17.3036 36.8215 17.3036C37.8758 17.3036 38.7306 18.1584 38.7306 19.2127C38.7302 20.267 37.8758 21.1218 36.8215 21.1218Z" fill="url(#paint1_linear_63_49)"/>
<path d="M28.3297 0C13.0312 0 0.625 12.4062 0.625 27.7047C0.625 43.0032 13.0312 55.4094 28.3297 55.4094C43.6282 55.4094 56.0344 43.0032 56.0344 27.7047C56.0344 12.4062 43.6282 0 28.3297 0ZM44.1423 34.2635C44.0654 35.957 43.7961 37.1132 43.4029 38.1252C42.5765 40.2622 40.8872 41.9515 38.7502 42.7779C37.7386 43.1711 36.582 43.4399 34.8889 43.5173C33.1925 43.5947 32.6505 43.6133 28.3301 43.6133C24.0093 43.6133 23.4678 43.5947 21.7709 43.5173C20.0778 43.4399 18.9212 43.1711 17.9096 42.7779C16.8477 42.3784 15.8863 41.7524 15.0916 40.9428C14.2825 40.1485 13.6564 39.1867 13.2569 38.1252C12.8638 37.1136 12.5945 35.957 12.5175 34.2639C12.4393 32.5671 12.4211 32.0251 12.4211 27.7047C12.4211 23.3843 12.4393 22.8423 12.5171 21.1459C12.594 19.4524 12.8629 18.2962 13.2561 17.2842C13.6555 16.2227 14.282 15.2609 15.0916 14.4666C15.8859 13.657 16.8477 13.031 17.9092 12.6315C18.9212 12.2383 20.0774 11.9695 21.7709 11.8921C23.4673 11.8147 24.0093 11.7961 28.3297 11.7961C32.6501 11.7961 33.1921 11.8147 34.8885 11.8925C36.582 11.9695 37.7382 12.2383 38.7502 12.6311C39.8117 13.0305 40.7735 13.657 41.5682 14.4666C42.3774 15.2613 43.0039 16.2227 43.4029 17.2842C43.7965 18.2962 44.0654 19.4524 44.1427 21.1459C44.2201 22.8423 44.2383 23.3843 44.2383 27.7047C44.2383 32.0251 44.2201 32.5671 44.1423 34.2635Z" fill="url(#paint2_linear_63_49)"/>
<defs>
<linearGradient id="paint0_linear_63_49" x1="28.3302" y1="22.4018" x2="28.3302" y2="33.0076" gradientUnits="userSpaceOnUse">
<stop stop-color="#6389E3"/>
<stop offset="1" stop-color="#72AAF8"/>
</linearGradient>
<linearGradient id="paint1_linear_63_49" x1="28.3293" y1="14.6627" x2="28.3293" y2="40.7471" gradientUnits="userSpaceOnUse">
<stop stop-color="#6389E3"/>
<stop offset="1" stop-color="#72AAF8"/>
</linearGradient>
<linearGradient id="paint2_linear_63_49" x1="28.3297" y1="0" x2="28.3297" y2="55.4094" gradientUnits="userSpaceOnUse">
<stop stop-color="#6389E3"/>
<stop offset="1" stop-color="#72AAF8"/>
</linearGradient>
</defs>
</svg>
