<svg width="28" height="28" viewBox="0 0 28 28" fill="none" xmlns="http://www.w3.org/2000/svg">
<g clip-path="url(#clip0_2759_2406)">
<path d="M13.8462 0C21.4806 0 27.6923 5.04 27.6923 11.2362C27.6923 13.7163 26.7317 15.949 24.724 18.1488C21.8198 21.4927 15.3242 25.5652 13.8462 26.1883C12.4096 26.794 12.5758 25.8473 12.6415 25.4735L12.6467 25.4423L12.844 24.2567C12.8908 23.9037 12.9392 23.355 12.799 23.0054C12.6433 22.6194 12.0306 22.4187 11.5806 22.3217C4.92577 21.4442 0 16.7902 0 11.2362C0 5.04 6.21346 0 13.8462 0ZM8.69192 13.3027H6.0525V8.51192C6.0525 8.44061 6.02429 8.3722 5.97403 8.32161C5.92377 8.27103 5.85554 8.24238 5.78423 8.24192H4.81154C4.77608 8.24192 4.74097 8.24891 4.70821 8.26248C4.67546 8.27604 4.64569 8.29593 4.62062 8.321C4.59555 8.34608 4.57566 8.37584 4.56209 8.4086C4.54852 8.44136 4.54154 8.47647 4.54154 8.51192V14.5454C4.54154 14.6163 4.57096 14.6838 4.61769 14.7306V14.7323L4.62115 14.7358L4.62462 14.7392C4.67481 14.7875 4.7419 14.8142 4.81154 14.8137H8.69192C8.84077 14.8137 8.96019 14.6925 8.96019 14.5437V13.5744C8.96042 13.539 8.95366 13.5038 8.9403 13.471C8.92695 13.4381 8.90725 13.4082 8.88234 13.383C8.85743 13.3578 8.82779 13.3377 8.79512 13.3239C8.76245 13.3101 8.72738 13.3029 8.69192 13.3027V13.3027ZM10.061 8.24192C9.98935 8.24192 9.92068 8.27037 9.87004 8.321C9.81941 8.37164 9.79096 8.44031 9.79096 8.51192V14.5454C9.79096 14.6942 9.91212 14.8137 10.061 14.8137H11.0337C11.1825 14.8137 11.3019 14.6925 11.3019 14.5454V8.51192C11.3019 8.44061 11.2737 8.3722 11.2235 8.32161C11.1732 8.27103 11.105 8.24238 11.0337 8.24192H10.061ZM16.7469 8.24192C16.6753 8.24192 16.6066 8.27037 16.556 8.321C16.5054 8.37164 16.4769 8.44031 16.4769 8.51192V12.0946L13.7129 8.36308C13.7059 8.35399 13.6984 8.34532 13.6904 8.33711V8.33538C13.6849 8.32933 13.6791 8.32355 13.6731 8.31808L13.6679 8.31288C13.6619 8.30721 13.6556 8.302 13.6488 8.29731H13.6471L13.6385 8.29038L13.6333 8.28692C13.6306 8.28491 13.6277 8.28317 13.6246 8.28173L13.6108 8.27308H13.6073L13.6021 8.26961L13.5848 8.26269L13.5779 8.25923C13.5722 8.25718 13.5664 8.25544 13.5606 8.25404H13.5571L13.5519 8.25231L13.5363 8.24885H13.526L13.5208 8.24711H13.5138L13.5104 8.24538H12.5169C12.4456 8.24538 12.3772 8.27359 12.3266 8.32385C12.276 8.37411 12.2474 8.44235 12.2469 8.51365V14.5471C12.2469 14.696 12.3681 14.8154 12.5169 14.8154H13.4862C13.6367 14.8154 13.7579 14.6942 13.7579 14.5471V10.9644L16.5271 14.7029C16.5455 14.7286 16.5684 14.7509 16.5946 14.7687L16.5963 14.7704L16.6137 14.7808L16.6206 14.7842C16.625 14.7868 16.6297 14.7892 16.6344 14.7912L16.6465 14.7963L16.6552 14.7998C16.6609 14.8017 16.6667 14.8034 16.6725 14.805H16.6777C16.7002 14.8115 16.7235 14.815 16.7469 14.8154H17.7162C17.8667 14.8154 17.9879 14.6942 17.9879 14.5471V8.51192C17.9879 8.44031 17.9594 8.37164 17.9088 8.321C17.8582 8.27037 17.7895 8.24192 17.7179 8.24192H16.7469V8.24192ZM23.3498 9.48288V8.51365C23.35 8.4782 23.3433 8.44304 23.3299 8.4102C23.3166 8.37735 23.2969 8.34746 23.272 8.32223C23.247 8.29699 23.2174 8.27691 23.1847 8.26314C23.1521 8.24936 23.117 8.24215 23.0815 8.24192H19.2012C19.1313 8.24201 19.0642 8.26933 19.0142 8.31808H19.0125L19.0108 8.32154L19.0073 8.32673C18.959 8.37632 18.9317 8.44268 18.9312 8.51192V14.5454C18.9312 14.6163 18.9606 14.6838 19.0073 14.7306L19.0108 14.7358L19.0142 14.7392C19.0645 14.7873 19.1316 14.814 19.2012 14.8137H23.0815C23.2304 14.8137 23.3498 14.6925 23.3498 14.5437V13.5744C23.35 13.539 23.3433 13.5038 23.3299 13.471C23.3166 13.4381 23.2969 13.4082 23.272 13.383C23.247 13.3578 23.2174 13.3377 23.1847 13.3239C23.1521 13.3101 23.117 13.3029 23.0815 13.3027H20.4404V12.2833H23.0798C23.2287 12.2833 23.3481 12.1621 23.3481 12.0133V11.044C23.3483 11.0086 23.3415 10.9734 23.3282 10.9406C23.3148 10.9077 23.2951 10.8778 23.2702 10.8526C23.2453 10.8274 23.2157 10.8073 23.183 10.7935C23.1503 10.7797 23.1153 10.7725 23.0798 10.7723H20.4404V9.75288H23.0798C23.2287 9.75288 23.3481 9.63173 23.3481 9.48288H23.3498Z" fill="url(#paint0_linear_2759_2406)"/>
</g>
<defs>
<linearGradient id="paint0_linear_2759_2406" x1="1.54743e-07" y1="13.1929" x2="27.6923" y2="13.1929" gradientUnits="userSpaceOnUse">
<stop stop-color="#6288E2"/>
<stop offset="1" stop-color="#73ACF9"/>
</linearGradient>
<clipPath id="clip0_2759_2406">
<rect width="27.6923" height="27.6923" fill="white"/>
</clipPath>
</defs>
</svg>
