<svg width="28" height="28" viewBox="0 0 28 28" fill="none" xmlns="http://www.w3.org/2000/svg">
<g clip-path="url(#clip0_2759_2403)">
<path d="M8.71172 25.0965C19.1591 25.0965 24.8749 16.4389 24.8749 8.93331C24.8749 8.68992 24.8695 8.44112 24.8587 8.19773C25.9706 7.39362 26.9302 6.39761 27.6923 5.25651C26.6568 5.71724 25.5573 6.01814 24.4314 6.14894C25.6169 5.43837 26.5045 4.32209 26.9297 3.00705C25.8145 3.66796 24.5949 4.13418 23.3232 4.38571C22.4664 3.47527 21.3334 2.87245 20.0996 2.67045C18.8658 2.46845 17.5998 2.67853 16.4974 3.2682C15.395 3.85787 14.5175 4.79429 14.0006 5.93268C13.4837 7.07107 13.3563 8.34803 13.6379 9.56612C11.3798 9.45281 9.1707 8.86621 7.15382 7.84435C5.13695 6.8225 3.35734 5.38821 1.93035 3.63445C1.20508 4.88491 0.983142 6.3646 1.30965 7.77281C1.63616 9.18101 2.48661 10.4121 3.68816 11.2158C2.78611 11.1871 1.90382 10.9443 1.11418 10.5072V10.5775C1.11337 11.8898 1.56704 13.1618 2.39805 14.1774C3.22906 15.193 4.38614 15.8895 5.6726 16.1485C4.83699 16.3771 3.95998 16.4104 3.10944 16.2458C3.47245 17.3744 4.17874 18.3614 5.12974 19.0692C6.08073 19.7771 7.22899 20.1703 8.41424 20.1941C6.40203 21.7747 3.91635 22.6321 1.35757 22.628C0.903793 22.6273 0.45046 22.5995 0 22.5447C2.59945 24.2124 5.6233 25.0981 8.71172 25.0965Z" fill="url(#paint0_linear_2759_2403)"/>
</g>
<defs>
<linearGradient id="paint0_linear_2759_2403" x1="1.54743e-07" y1="13.8461" x2="27.6923" y2="13.8461" gradientUnits="userSpaceOnUse">
<stop stop-color="#6288E2"/>
<stop offset="1" stop-color="#73ACF9"/>
</linearGradient>
<clipPath id="clip0_2759_2403">
<rect width="27.6923" height="27.6923" fill="white"/>
</clipPath>
</defs>
</svg>
